<?xml version="1.0" encoding="UTF-8"?>
<svg width="421px" height="421px" viewBox="0 0 421 421" version="1.1" xmlns="http://www.w3.org/2000/svg" xmlns:xlink="http://www.w3.org/1999/xlink">
    <!-- Generator: Sketch 53.2 (72643) - https://sketchapp.com -->
    <title>Artboard</title>
    <desc>Created with Sketch.</desc>
    <defs>
        <path d="M210.5,421 C94.2440602,421 0,326.75594 0,210.5 C0,94.2440602 94.2440602,0 210.5,0 C326.75594,0 421,94.2440602 421,210.5 C421,326.75594 326.75594,421 210.5,421 Z M210.5,308 C264.347763,308 308,264.347763 308,210.5 C308,156.652237 264.347763,113 210.5,113 C156.652237,113 113,156.652237 113,210.5 C113,264.347763 156.652237,308 210.5,308 Z" id="path-1"></path>
        <rect id="path-3" x="0" y="0" width="429" height="429"></rect>
    </defs>
    <g id="Artboard" stroke="none" stroke-width="1" fill="none" fill-rule="evenodd">
        <g id="RGB_color_wheel_72">
            <mask id="mask-2" fill="white">
                <use xlink:href="#path-1"></use>
            </mask>
            <use id="Mask" fill="#D8D8D8" xlink:href="#path-1"></use>
            <g mask="url(#mask-2)">
                <g transform="translate(-4.000000, -4.000000)">
                    <mask id="mask-4" fill="white">
                        <use xlink:href="#path-3"></use>
                    </mask>
                    <g id="Rectangle" stroke="none" fill="none"></g>
                    <g id="id1" stroke="none" stroke-width="1" fill="none" fill-rule="evenodd" mask="url(#mask-4)">
                        <g id="Group">
                            <g id="id3" fill="#FFFFFF">
                                <path d="M242.573843,427.137569 C203.441189,432.281853 169.007694,427.745162 132.5487,412.63636 C96.0897052,397.527558 68.5429094,376.383337 44.5204831,345.112574 C20.4980568,313.801304 7.21077889,281.720417 2.06600968,242.591456 C-3.07875952,203.462495 1.41784978,169.03225 16.5280774,132.576696 C31.6383051,96.1211429 52.7845219,68.5769468 84.098747,44.5567877 C115.412972,20.4961223 147.496887,7.21009837 186.629541,2.0658147 C225.762195,-3.07846897 260.19569,1.45822214 296.654684,16.5670238 C333.113679,31.6758254 360.660474,52.8200465 384.682901,84.0908102 C408.705327,115.40208 421.992605,147.482967 427.137374,186.611928 C432.282143,225.740889 427.745024,260.171134 412.675306,296.626687 C397.565079,333.082241 376.418862,360.626437 345.104637,384.646596 C313.790412,408.666755 281.706497,421.993285 242.573843,427.137569 L242.573843,427.137569 Z" id="Path"></path>
                            </g>
                            <g id="id4" transform="translate(205.264138, 0.202531)" fill="#FFFF00">
                                <path d="M9.31729856,214.399161 L0,0.243037024 C6.56261899,-0.0405061706 12.1124881,-0.0405061706 18.6751071,0.243037024 L9.31729856,214.399161 Z" id="Path"></path>
                            </g>
                            <g id="id5" transform="translate(205.264138, 214.601692)" fill="#0000FF">
                                <path d="M9.31729856,0 L18.6751071,214.156124 C12.1124881,214.439667 6.56261899,214.439667 0,214.156124 L9.31729856,0 Z" id="Path"></path>
                            </g>
                            <g id="id6" transform="translate(214.581437, 0.445568)" fill="#FFEA00">
                                <path d="M0,214.156124 L9.35780856,0 C15.9609375,0.283543194 21.4702967,0.769617242 27.9924057,1.62024682 L0,214.156124 Z" id="Path"></path>
                            </g>
                            <g id="id7" transform="translate(186.629541, 214.601692)" fill="#0015FF">
                                <path d="M27.9518957,0 L18.6345971,214.156124 C12.0314681,213.872581 6.52210899,213.386507 0,212.535877 L27.9518957,0 Z" id="Path"></path>
                            </g>
                            <g id="id8" transform="translate(214.581437, 2.065815)" fill="#FFD500">
                                <path d="M0,212.535877 L27.9924057,0 C34.5145147,0.850629583 39.9833638,1.82277768 46.4244528,3.24049365 L0,212.535877 Z" id="Path"></path>
                            </g>
                            <g id="id9" transform="translate(168.197494, 214.601692)" fill="#002AFF">
                                <path d="M46.3839428,0 L18.4320472,212.535877 C11.9099382,211.685248 6.44108901,210.7131 0,209.295384 L46.3839428,0 Z" id="Path"></path>
                            </g>
                            <g id="id10" transform="translate(214.581437, 5.306308)" fill="#FFC000">
                                <path d="M0,209.295384 L46.4244528,0 C52.8250318,1.45822214 58.212861,2.87593811 64.49191,4.86074047 L0,209.295384 Z" id="Path"></path>
                            </g>
                            <g id="id11" transform="translate(150.130037, 214.601692)" fill="#003FFF">
                                <path d="M64.4514001,0 L18.0674572,209.295384 C11.6668782,207.837161 6.27904903,206.419445 0,204.434643 L64.4514001,0 Z" id="Path"></path>
                            </g>
                            <g id="id12" transform="translate(214.581437, 10.167049)" fill="#FFAA00">
                                <path d="M0,204.434643 L64.49191,0 C70.7709591,1.98480236 75.9967483,3.88859238 82.0732473,6.39997496 L0,204.434643 Z" id="Path"></path>
                            </g>
                            <g id="id13" transform="translate(132.548700, 214.601692)" fill="#0055FF">
                                <path d="M82.0327373,0 L17.5813373,204.434643 C11.3022883,202.449841 6.07649906,200.546051 0,198.034668 L82.0327373,0 Z" id="Path"></path>
                            </g>
                            <g id="id14" transform="translate(214.581437, 16.567024)" fill="#FF9500">
                                <path d="M0,198.034668 L82.0732473,0 C88.1497464,2.51138258 93.1729856,4.86074047 99.0064247,7.89870327 L0,198.034668 Z" id="Path"></path>
                            </g>
                            <g id="id15" transform="translate(115.615522, 214.601692)" fill="#006AFF">
                                <path d="M98.9659147,0 L16.9331774,198.034668 C10.8566783,195.523286 5.8334391,193.173928 0,190.135965 L98.9659147,0 Z" id="Path"></path>
                            </g>
                            <g id="id16" transform="translate(214.581437, 24.465727)" fill="#FF8000">
                                <path d="M0,190.135965 L99.0064247,0 C104.839864,3.0379628 109.660553,5.83288857 115.210422,9.35692541 L0,190.135965 Z" id="Path"></path>
                            </g>
                            <g id="id17" transform="translate(99.411525, 214.601692)" fill="#007FFF">
                                <path d="M115.169912,0 L16.2039975,190.135965 C10.3705584,187.098002 5.54986914,184.303076 0,180.779039 L115.169912,0 Z" id="Path"></path>
                            </g>
                            <g id="id18" transform="translate(214.581437, 33.822652)" fill="#FF6B00">
                                <path d="M0,180.779039 L115.210422,0 C120.760291,3.52403684 125.297411,6.72402432 130.5232,10.7341352 L0,180.779039 Z" id="Path"></path>
                            </g>
                            <g id="id19" transform="translate(84.098747, 214.601692)" fill="#0094FF">
                                <path d="M130.48269,0 L15.3127776,180.779039 C9.76290849,177.255003 5.22578919,174.055015 0,170.044904 L130.48269,0 Z" id="Path"></path>
                            </g>
                            <g id="id20" transform="translate(214.581437, 44.556788)" fill="#FF5500">
                                <path d="M0,170.044904 L130.5232,0 C135.748989,3.96960472 140.002538,7.5746539 144.863738,11.9898265 L0,170.044904 Z" id="Path"></path>
                            </g>
                            <g id="id21" transform="translate(69.758209, 214.601692)" fill="#00AAFF">
                                <path d="M144.823228,0 L14.3405378,170.044904 C9.11474859,166.075299 4.86119925,162.47025 0,158.055078 L144.823228,0 Z" id="Path"></path>
                            </g>
                            <g id="id22" transform="translate(214.581437, 56.546614)" fill="#FF4000">
                                <path d="M0,158.055078 L144.863738,0 C149.684427,4.45567877 153.613896,8.38477732 158.069996,13.2455178 L0,158.055078 Z" id="Path"></path>
                            </g>
                            <g id="id23" transform="translate(56.551951, 214.601692)" fill="#00BFFF">
                                <path d="M158.029486,0 L13.206258,158.055078 C8.38556871,153.599399 4.41558932,149.6703 0,144.80956 L158.029486,0 Z" id="Path"></path>
                            </g>
                            <g id="id24" transform="translate(214.581437, 69.792132)" fill="#FF2B00">
                                <path d="M0,144.80956 L158.069996,0 C162.526095,4.8202343 166.090974,9.11388839 170.101464,14.2986782 L0,144.80956 Z" id="Path"></path>
                            </g>
                            <g id="id25" transform="translate(44.520483, 214.601692)" fill="#00D4FF">
                                <path d="M170.060954,0 L12.0314681,144.80956 C7.57536883,139.948819 4.01048938,135.695672 0,130.510882 L170.060954,0 Z" id="Path"></path>
                            </g>
                            <g id="id26" transform="translate(214.581437, 84.090810)" fill="#FF1600">
                                <path d="M0,130.510882 L170.101464,0 C174.111953,5.22529601 177.271733,9.80249329 180.836612,15.3518387 L0,130.510882 Z" id="Path"></path>
                            </g>
                            <g id="id27" transform="translate(33.785335, 214.601692)" fill="#00E9FF">
                                <path d="M180.796102,0 L10.7351483,130.510882 C6.72465896,125.285586 3.52436946,120.708388 0,115.159043 L180.796102,0 Z" id="Path"></path>
                            </g>
                            <g id="id28" transform="translate(214.581437, 99.442649)" fill="#FF0000">
                                <path d="M0,115.159043 L180.836612,0 C184.360982,5.54934537 187.156171,10.3290735 190.194421,16.1619621 L0,115.159043 Z" id="Path"></path>
                            </g>
                            <g id="id29" transform="translate(24.427526, 214.601692)" fill="#00FFFF">
                                <path d="M190.153911,0 L9.35780856,115.159043 C5.8334391,109.609698 3.03824953,104.82997 0,98.997081 L190.153911,0 Z" id="Path"></path>
                            </g>
                            <g id="id30" transform="translate(214.581437, 115.604611)" fill="#FF0015">
                                <path d="M0,98.997081 L190.194421,0 C193.23267,5.83288857 195.58225,10.8961599 198.093869,16.9720855 L0,98.997081 Z" id="Path"></path>
                            </g>
                            <g id="id31" transform="translate(16.528077, 214.601692)" fill="#00FFEA">
                                <path d="M198.053359,0 L7.89944878,98.997081 C4.86119925,93.1641924 2.51161961,88.1009211 0,82.0249955 L198.053359,0 Z" id="Path"></path>
                            </g>
                            <g id="id32" transform="translate(214.581437, 132.576696)" fill="#FF002A">
                                <path d="M0,82.0249955 L198.093869,0 C200.605489,6.07592559 202.509459,11.3012216 204.494448,17.579678 L0,82.0249955 Z" id="Path"></path>
                            </g>
                            <g id="id33" transform="translate(10.127498, 214.601692)" fill="#00FFD5">
                                <path d="M204.453938,0 L6.40057901,82.0249955 C3.8889594,75.9490699 1.98498969,70.7237739 0,64.4453174 L204.453938,0 Z" id="Path"></path>
                            </g>
                            <g id="id34" transform="translate(214.581437, 150.156374)" fill="#FF003F">
                                <path d="M0,64.4453174 L204.494448,0 C206.438928,6.27845644 207.897288,11.625271 209.315138,18.0657521 L0,64.4453174 Z" id="Path"></path>
                            </g>
                            <g id="id35" transform="translate(5.306809, 214.601692)" fill="#00FFC0">
                                <path d="M209.274628,0 L4.82068926,64.4453174 C2.87620956,58.166861 1.41784978,52.8200465 0,46.3795653 L209.274628,0 Z" id="Path"></path>
                            </g>
                            <g id="id36" transform="translate(214.581437, 168.222127)" fill="#FF0055">
                                <path d="M0,46.3795653 L209.315138,0 C210.732987,6.39997496 211.705227,11.868308 212.555937,18.3898015 L212.555937,18.3898015 L0,46.3795653 Z" id="Path"></path>
                            </g>
                            <g id="id37" transform="translate(2.066010, 214.601692)" fill="#00FFAA">
                                <path d="M212.515427,0 L3.2407995,46.3795653 C1.82294972,39.9795904 0.850709869,34.5112574 0,27.9897639 L212.515427,0 Z" id="Path"></path>
                            </g>
                            <g id="id38" transform="translate(214.581437, 186.611928)" fill="#FF006A">
                                <path d="M0,27.9897639 L212.555937,0 C213.406647,6.52149347 213.892767,12.0708388 214.176337,18.6328385 L0,27.9897639 Z" id="Path"></path>
                            </g>
                            <g id="id39" transform="translate(0.445610, 214.601692)" fill="#00FF95">
                                <path d="M214.135827,0 L1.62039975,27.9897639 L1.62039975,27.9897639 C0.769689881,21.4682704 0.283569956,15.918925 0,9.35692541 L214.135827,0 Z" id="Path"></path>
                            </g>
                            <g id="id40" transform="translate(214.581437, 205.244766)" fill="#FF007F">
                                <path d="M0,9.35692541 L214.176337,0 C214.500417,6.56199964 214.500417,12.1518512 214.176337,18.7138508 L0,9.35692541 Z" id="Path"></path>
                            </g>
                            <g id="id41" transform="translate(0.202550, 205.244766)" fill="#00FF80">
                                <path d="M214.378887,9.35692541 L0.243059962,18.7138508 C-0.0810199875,12.1518512 -0.0810199875,6.56199964 0.243059962,0 L214.378887,9.35692541 Z" id="Path"></path>
                            </g>
                            <g id="id42" transform="translate(214.581437, 214.601692)" fill="#FF0094">
                                <path d="M0,0 L214.176337,9.35692541 C213.892767,15.918925 213.406647,21.4682704 212.555937,27.9897639 L0,0 Z" id="Path"></path>
                            </g>
                            <g id="id43" transform="translate(0.445610, 186.611928)" fill="#00FF6B">
                                <path d="M214.135827,27.9897639 L0,18.6328385 C0.283569956,12.0708388 0.769689881,6.52149347 1.62039975,0 L214.135827,27.9897639 Z" id="Path"></path>
                            </g>
                            <g id="id44" transform="translate(214.581437, 214.601692)" fill="#FF00AA">
                                <path d="M0,0 L212.555937,27.9897639 C211.705227,34.5112574 210.732987,39.9795904 209.315138,46.3795653 L0,0 Z" id="Path"></path>
                            </g>
                            <g id="id45" transform="translate(2.066010, 168.222127)" fill="#00FF55">
                                <path d="M212.515427,46.3795653 L0,18.3898015 C0.850709869,11.868308 1.82294972,6.39997496 3.2407995,0 L212.515427,46.3795653 Z" id="Path"></path>
                            </g>
                            <g id="id46" transform="translate(214.581437, 214.601692)" fill="#FF00BF">
                                <path d="M0,0 L209.315138,46.3795653 C207.897288,52.8200465 206.438928,58.166861 204.494448,64.4453174 L0,0 Z" id="Path"></path>
                            </g>
                            <g id="id47" transform="translate(5.306809, 150.156374)" fill="#00FF40">
                                <path d="M209.274628,64.4453174 L0,18.0657521 C1.41784978,11.625271 2.87620956,6.27845644 4.82068926,0 L209.274628,64.4453174 Z" id="Path"></path>
                            </g>
                            <g id="id48" transform="translate(214.581437, 214.601692)" fill="#FF00D4">
                                <path d="M0,0 L204.494448,64.4453174 C202.509459,70.7237739 200.605489,75.9490699 198.093869,82.0249955 L0,0 Z" id="Path"></path>
                            </g>
                            <g id="id49" transform="translate(10.127498, 132.576696)" fill="#00FF2B">
                                <path d="M204.453938,82.0249955 L0,17.579678 C1.98498969,11.3012216 3.8889594,6.07592559 6.40057901,0 L204.453938,82.0249955 Z" id="Path"></path>
                            </g>
                            <g id="id50" transform="translate(214.581437, 214.601692)" fill="#FF00E9">
                                <path d="M0,0 L198.093869,82.0249955 C195.58225,88.1009211 193.23267,93.1641924 190.194421,98.997081 L0,0 Z" id="Path"></path>
                            </g>
                            <g id="id51" transform="translate(16.528077, 115.604611)" fill="#00FF16">
                                <path d="M198.053359,98.997081 L0,16.9720855 C2.51161961,10.8961599 4.86119925,5.83288857 7.89944878,0 L198.053359,98.997081 Z" id="Path"></path>
                            </g>
                            <g id="id52" transform="translate(214.581437, 214.601692)" fill="#FF00FF">
                                <path d="M0,0 L190.194421,98.997081 C187.156171,104.82997 184.360982,109.609698 180.836612,115.159043 L0,0 Z" id="Path"></path>
                            </g>
                            <g id="id53" transform="translate(24.427526, 99.442649)" fill="#00FF00">
                                <path d="M190.153911,115.159043 L0,16.1619621 C3.03824953,10.3290735 5.8334391,5.54934537 9.35780856,0 L190.153911,115.159043 Z" id="Path"></path>
                            </g>
                            <g id="id54" transform="translate(214.581437, 214.601692)" fill="#EA00FF">
                                <path d="M0,0 L180.836612,115.159043 C177.271733,120.708388 174.111953,125.285586 170.101464,130.510882 L0,0 Z" id="Path"></path>
                            </g>
                            <g id="id55" transform="translate(33.785335, 84.090810)" fill="#15FF00">
                                <path d="M180.796102,130.510882 L0,15.3518387 C3.52436946,9.80249329 6.72465896,5.22529601 10.7351483,0 L180.796102,130.510882 Z" id="Path"></path>
                            </g>
                            <g id="id56" transform="translate(214.581437, 214.601692)" fill="#D500FF">
                                <path d="M0,0 L170.101464,130.510882 C166.090974,135.695672 162.526095,139.948819 158.069996,144.80956 L0,0 Z" id="Path"></path>
                            </g>
                            <g id="id57" transform="translate(44.520483, 69.792132)" fill="#2AFF00">
                                <path d="M170.060954,144.80956 L0,14.2986782 C4.01048938,9.11388839 7.57536883,4.8202343 12.0314681,0 L170.060954,144.80956 Z" id="Path"></path>
                            </g>
                            <g id="id58" transform="translate(214.581437, 214.601692)" fill="#C000FF">
                                <path d="M0,0 L158.069996,144.80956 C153.613896,149.6703 149.684427,153.599399 144.863738,158.055078 L0,0 Z" id="Path"></path>
                            </g>
                            <g id="id59" transform="translate(56.551951, 56.546614)" fill="#3FFF00">
                                <path d="M158.029486,158.055078 L0,13.2455178 C4.41558932,8.38477732 8.38556871,4.45567877 13.206258,0 L158.029486,158.055078 Z" id="Path"></path>
                            </g>
                            <g id="id60" transform="translate(214.581437, 214.601692)" fill="#AA00FF">
                                <path d="M0,0 L144.863738,158.055078 C140.002538,162.47025 135.748989,166.075299 130.5232,170.044904 L0,0 Z" id="Path"></path>
                            </g>
                            <g id="id61" transform="translate(69.758209, 44.556788)" fill="#55FF00">
                                <path d="M144.823228,170.044904 L0,11.9898265 C4.86119925,7.5746539 9.11474859,3.96960472 14.3405378,0 L144.823228,170.044904 Z" id="Path"></path>
                            </g>
                            <g id="id62" transform="translate(214.581437, 214.601692)" fill="#9500FF">
                                <path d="M0,0 L130.5232,170.044904 C125.297411,174.055015 120.760291,177.255003 115.210422,180.779039 L0,0 Z" id="Path"></path>
                            </g>
                            <g id="id63" transform="translate(84.098747, 33.822652)" fill="#6AFF00">
                                <path d="M130.48269,180.779039 L0,10.7341352 C5.22578919,6.72402432 9.76290849,3.52403684 15.3127776,0 L130.48269,180.779039 Z" id="Path"></path>
                            </g>
                            <g id="id64" transform="translate(214.581437, 214.601692)" fill="#8000FF">
                                <path d="M0,0 L115.210422,180.779039 C109.660553,184.303076 104.839864,187.098002 99.0064247,190.135965 L0,0 Z" id="Path"></path>
                            </g>
                            <g id="id65" transform="translate(99.411525, 24.465727)" fill="#7FFF00">
                                <path d="M115.169912,190.135965 L0,9.35692541 C5.54986914,5.83288857 10.3705584,3.0379628 16.2039975,0 L115.169912,190.135965 Z" id="Path"></path>
                            </g>
                            <g id="id66" transform="translate(214.581437, 214.601692)" fill="#6B00FF">
                                <path d="M0,0 L99.0064247,190.135965 C93.1729856,193.173928 88.1497464,195.523286 82.0732473,198.034668 L0,0 Z" id="Path"></path>
                            </g>
                            <g id="id67" transform="translate(115.615522, 16.567024)" fill="#94FF00">
                                <path d="M98.9659147,198.034668 L0,7.89870327 C5.8334391,4.86074047 10.8566783,2.51138258 16.9331774,0 L98.9659147,198.034668 Z" id="Path"></path>
                            </g>
                            <g id="id68" transform="translate(214.581437, 214.601692)" fill="#5500FF">
                                <path d="M0,0 L82.0732473,198.034668 C75.9967483,200.546051 70.7709591,202.449841 64.49191,204.434643 L0,0 Z" id="Path"></path>
                            </g>
                            <g id="id69" transform="translate(132.548700, 10.167049)" fill="#AAFF00">
                                <path d="M82.0327373,204.434643 L0,6.39997496 C6.07649906,3.88859238 11.3022883,1.98480236 17.5813373,0 L82.0327373,204.434643 Z" id="Path"></path>
                            </g>
                            <g id="id70" transform="translate(214.581437, 214.601692)" fill="#4000FF">
                                <path d="M0,0 L64.49191,204.434643 C58.212861,206.419445 52.8250318,207.837161 46.4244528,209.295384 L0,0 Z" id="Path"></path>
                            </g>
                            <g id="id71" transform="translate(150.130037, 5.306308)" fill="#BFFF00">
                                <path d="M64.4514001,209.295384 L0,4.86074047 C6.27904903,2.87593811 11.6668782,1.45822214 18.0674572,0 L64.4514001,209.295384 Z" id="Path"></path>
                            </g>
                            <g id="id72" transform="translate(214.581437, 214.601692)" fill="#2B00FF">
                                <path d="M0,0 L46.4244528,209.295384 C39.9833638,210.7131 34.5145147,211.685248 27.9924057,212.535877 L0,0 Z" id="Path"></path>
                            </g>
                            <g id="id73" transform="translate(168.197494, 2.065815)" fill="#D4FF00">
                                <path d="M46.3839428,212.535877 L0,3.24049365 C6.44108901,1.82277768 11.9099382,0.850629583 18.4320472,0 L46.3839428,212.535877 Z" id="Path"></path>
                            </g>
                            <g id="id74" transform="translate(214.581437, 214.601692)" fill="#1600FF">
                                <path d="M0,0 L27.9924057,212.535877 L27.9924057,212.535877 C21.4702967,213.386507 15.9609375,213.872581 9.35780856,214.156124 L0,0 Z" id="Path"></path>
                            </g>
                            <g id="id75" transform="translate(186.629541, 0.445568)" fill="#E9FF00">
                                <path d="M27.9518957,214.156124 L0,1.62024682 C6.52210899,0.769617242 12.0314681,0.283543194 18.6345971,0 L27.9518957,214.156124 Z" id="Path"></path>
                            </g>
                        </g>
                    </g>
                </g>
            </g>
        </g>
    </g>
</svg>